<svg id="Layer_1" data-name="Layer 1" xmlns="http://www.w3.org/2000/svg" viewBox="0 0 195.99 68.26"><defs><style>.cls-1{fill:#fff}.cls-2{fill:#bbd25e}</style></defs><title>icon-sumtotal-logo-white</title><path class="cls-1" d="M57.42 64.97h-1.43l-1-2.59h-4l-1 2.59h-1.4l3.87-9.48h1.23zm-2.91-3.75l-1.54-4-.11.2-1.44 3.8h3.09zM67.52 62.42a2.39 2.39 0 0 1-1.06 2 3.85 3.85 0 0 1-2.3.67 6.93 6.93 0 0 1-2.51-.46l.34-1.11a6.62 6.62 0 0 0 2.19.42 2.44 2.44 0 0 0 1.3-.32 1.25 1.25 0 0 0 .61-1.12 1.76 1.76 0 0 0-1.1-1.46l-2.11-1.11a2.46 2.46 0 0 1-1.14-2.09 2.2 2.2 0 0 1 1-1.91 3.69 3.69 0 0 1 2.15-.6 6.93 6.93 0 0 1 2.27.44l-.4 1.1a5.54 5.54 0 0 0-1.87-.36q-1.71 0-1.71 1.3a1.65 1.65 0 0 0 1.14 1.3q2 1 2.12 1.11a2.57 2.57 0 0 1 1.08 2.2zM75.2 64.97h-1.6l-2.61-2.9a2.92 2.92 0 0 0-.6-.53v3.42h-1.21V54.79h1.25v5.78l2.63-2.54h1.73l-3.38 3a1.41 1.41 0 0 1 .58.39zM77.86 55.66a.71.71 0 0 1-.24.55.84.84 0 0 1-.58.22.79.79 0 0 1-.56-.22.72.72 0 0 1-.23-.55.74.74 0 0 1 .23-.56.78.78 0 0 1 .56-.22.82.82 0 0 1 .57.22.72.72 0 0 1 .25.56zm-.17 9.3h-1.24v-6.93h1.24v6.93zM82.28 64.91a3.52 3.52 0 0 1-1.1.21 1.19 1.19 0 0 1-1.36-1.33v-9h1.25v8.76a.41.41 0 0 0 .42.5 1.22 1.22 0 0 0 .5-.11zM86.07 64.91a3.52 3.52 0 0 1-1.1.21 1.19 1.19 0 0 1-1.36-1.33v-9h1.25v8.76a.41.41 0 0 0 .42.5 1.22 1.22 0 0 0 .5-.11zM91.57 63.12a1.7 1.7 0 0 1-.83 1.53 3.21 3.21 0 0 1-1.76.46 5.74 5.74 0 0 1-2.08-.4l.36-1a4.46 4.46 0 0 0 1.64.36q1.29 0 1.29-1a1.22 1.22 0 0 0-.82-1l-1.51-.79a1.77 1.77 0 0 1-.82-1.5 1.64 1.64 0 0 1 .78-1.46 2.77 2.77 0 0 1 1.61-.46 4.52 4.52 0 0 1 1.79.36l-.33 1a4.36 4.36 0 0 0-1.47-.31.88.88 0 0 0-1.1.85 1.16 1.16 0 0 0 .85.93 17 17 0 0 1 1.57.78 1.89 1.89 0 0 1 .83 1.65zM99.39 61.5a3.68 3.68 0 0 1-.94 2.61 3.42 3.42 0 0 1-4.86 0 4.12 4.12 0 0 1 0-5.21 3.42 3.42 0 0 1 4.86 0 3.69 3.69 0 0 1 .94 2.6zm-1.39 0a3.06 3.06 0 0 0-.49-1.79 1.84 1.84 0 0 0-3 0 3.45 3.45 0 0 0 0 3.58 1.84 1.84 0 0 0 3 0 3.06 3.06 0 0 0 .48-1.79zM104.91 55.01l-.32 1a3.64 3.64 0 0 0-1.32-.33.71.71 0 0 0-.82.79v1.55h1.89v1.05h-1.89v5.88h-1.25v-5.88h-.79v-1h.79v-1.65q0-1.76 1.94-1.76a4.58 4.58 0 0 1 1.77.35zM109.51 64.81a5.47 5.47 0 0 1-1.69.35 1.65 1.65 0 0 1-1.93-1.74v-4.3h-.79v-1h.79v-1.99h1.25v1.9h2v1.09h-2v4.2a.68.68 0 0 0 .8.74 3.69 3.69 0 0 0 1.23-.26zM120.99 56.02l-.5 1a4.74 4.74 0 0 0-2.05-.51 3.08 3.08 0 0 0-2.47 1.1 4.32 4.32 0 0 0 0 5.23 3.14 3.14 0 0 0 2.51 1.12 5.11 5.11 0 0 0 1.91-.4l.42 1a6 6 0 0 1-2.45.54 4.37 4.37 0 0 1-3.4-1.46 5 5 0 0 1-1.28-3.51 4.8 4.8 0 0 1 1.3-3.46 4.49 4.49 0 0 1 3.39-1.35 5.83 5.83 0 0 1 2.62.7zM128.22 61.5a3.68 3.68 0 0 1-.93 2.61 3.42 3.42 0 0 1-4.86 0 4.12 4.12 0 0 1 0-5.21 3.42 3.42 0 0 1 4.86 0 3.69 3.69 0 0 1 .93 2.6zm-1.39 0a3.06 3.06 0 0 0-.49-1.79 1.84 1.84 0 0 0-3 0 3.45 3.45 0 0 0 0 3.58 1.84 1.84 0 0 0 3 0 3.05 3.05 0 0 0 .49-1.79zM139.24 64.97h-1.25V60.5a1.31 1.31 0 0 0-1.41-1.54 3.83 3.83 0 0 0-1.59.46 2.78 2.78 0 0 1 .14 1v4.62h-1.25v-4.55a1.3 1.3 0 0 0-1.41-1.53 4 4 0 0 0-1.48.36 3.49 3.49 0 0 1 0 .36v5.28h-1.2v-5.48a7.66 7.66 0 0 0-.08-.9 8.55 8.55 0 0 1 2.93-.69 2.59 2.59 0 0 1 1.93.64 5.13 5.13 0 0 1 2.32-.64 2.4 2.4 0 0 1 1.75.61 2.33 2.33 0 0 1 .62 1.75v4.73zM147.2 61.49a3.65 3.65 0 0 1-1 2.61 3.23 3.23 0 0 1-2.46 1 3.84 3.84 0 0 1-1.27-.24v3.2h-1.25v-8.81a7.15 7.15 0 0 0-.08-.87 7.16 7.16 0 0 1 2.51-.5 3.36 3.36 0 0 1 2.58 1 3.65 3.65 0 0 1 .97 2.61zm-1.39 0a2.93 2.93 0 0 0-.49-1.76 1.93 1.93 0 0 0-1.65-.76 3.37 3.37 0 0 0-1.22.24v.13a1 1 0 0 1 0 .19v4.3a2.42 2.42 0 0 0 1.07.22q2.29-.01 2.29-2.56zM153.99 64.61a9.23 9.23 0 0 1-2.76.51 3.68 3.68 0 0 1-2.08-.51 1.72 1.72 0 0 1-.82-1.53 1.8 1.8 0 0 1 .76-1.57 4.29 4.29 0 0 1 1.62-.61 12.13 12.13 0 0 0 1.33-.32.76.76 0 0 0 .58-.68q0-.94-1.36-.94a4.76 4.76 0 0 0-1.83.44l-.43-1a5.47 5.47 0 0 1 2.34-.56q2.54 0 2.54 2.22v3.66a6.62 6.62 0 0 0 .11.89zm-1.32-.8a2.11 2.11 0 0 1 0-.28v-2.18a4.32 4.32 0 0 1-1.39.46 3.74 3.74 0 0 0-1.07.36.91.91 0 0 0-.47.82q0 1.05 1.51 1.05a4.37 4.37 0 0 0 1.45-.24zM161.65 64.97h-1.25V60.5a1.37 1.37 0 0 0-1.57-1.54 4.26 4.26 0 0 0-1.65.36 3.11 3.11 0 0 1 0 .35v5.3h-1.19v-5.45a7.21 7.21 0 0 0-.1-.93 8.84 8.84 0 0 1 3-.71q2.79 0 2.79 2.39v4.7zM169.5 58.03l-2.51 7.23a6 6 0 0 1-1 1.86 3.28 3.28 0 0 1-1.64 1.14l-.6-.93a3.34 3.34 0 0 0 2.14-2.26 1 1 0 0 1-.68-.69l-2.58-6.34h1.41l2.18 5.75 1.9-5.75h1.33zM-.01 41.42l3.74-2.6a7 7 0 0 0 6.11 2.92c2.76 0 4-.92 4-2.43 0-1.84-1.68-2.11-5.52-3.2-3.36-.92-6.71-2.49-6.71-7s3.64-6.69 8.13-6.69a10.31 10.31 0 0 1 7.9 3.41l-3.19 3.14a6.14 6.14 0 0 0-4.71-2.22c-2.06 0-3.19.76-3.19 2.11 0 1.73 1.4 2.11 5 3s7.44 2.33 7.44 7.15c0 3.9-2.38 7.09-8.82 7.09-5.18 0-8.66-2.28-10.18-4.68zM21.44 36.54V23.18h5.4v12.93c0 3.21 1.49 5.08 4.65 5.08 3.53 0 5.71-2.19 5.71-5.83V23.18h5.4v22.44h-5.4l.09-3.2c-1.47 2.27-4.09 3.63-7.51 3.63-4.91.05-8.34-3.42-8.34-9.51zM46.74 23.18h5.4l-.15 3.85a7.31 7.31 0 0 1 6.68-4.33 6.63 6.63 0 0 1 6.57 4.28 9 9 0 0 1 7.75-4.28c5.29 0 8.44 3.53 8.44 9.24v13.68h-5.44V32.48c0-3.1-1.12-4.81-4.22-4.81s-5 1.92-5 5.66v12.29h-5.4V32.48c0-3.1-1.07-4.81-4.17-4.81s-5.07 1.92-5.07 5.66v12.29h-5.4V23.18zM98.33 34.42c0-6.68 5.35-11.7 12.13-11.7s12.07 5 12.07 11.7-5.23 11.7-12.07 11.7-12.13-5.04-12.13-11.7zm18.66 0c0-4.11-2.51-7-6.51-7s-6.57 2.89-6.57 7 2.57 7 6.57 7 6.51-2.91 6.51-7zM149.99 27.19a7.33 7.33 0 0 0-5.87 2.67l-3.13-3.15c2-2.35 4.65-4 9.4-4 5.4 0 9.45 3 9.45 9.67v13.24h-5.39l.12-2.53c-1.47 1.85-3.71 3-7 3-4.43 0-8.07-2.08-8.07-7.1 0-4.65 3.74-6.68 8.81-6.73h6.15c0-3.57-1.61-5.07-4.47-5.07zm-1.28 8.82c-2.35 0-3.9.85-3.9 2.83s1.5 2.94 4.27 2.94c3.15 0 5.4-1.55 5.4-4V36h-5.79zM163.87 12.57h5.4v33h-5.4v-33zM96.81 46.15h-4.27c-4.22 0-7.11-2.14-7.11-8.12V15.86h5.4v7.32h6v4.54h-6v9.93c0 2.56.85 3.31 2.24 3.31h3.74v5.19zM136.91 46.15h-4.27c-4.22 0-7.11-2.14-7.11-8.12V15.86h5.4v7.32h6v4.54h-6v9.93c0 2.56.85 3.31 2.24 3.31h3.74v5.19z"/><path class="cls-2" d="M176.11 3.42v5.1l3.4 3.4V1.71a1.71 1.71 0 0 0-1.7-1.71H167.6l3.39 3.42h5.09zM192.58 8.9V14l3.41 3.42V7.2a1.72 1.72 0 0 0-1.71-1.71h-10.22l3.42 3.42h5.1zM182.99 19.14v5.1l3.4 3.4V17.42a1.71 1.71 0 0 0-1.71-1.71h-10.19l3.42 3.41h5.08z"/><path class="cls-1" d="M170.74 42.95a2.57 2.57 0 0 1 .21-1 2.7 2.7 0 0 1 1.42-1.42 2.65 2.65 0 0 1 2.07 0 2.7 2.7 0 0 1 1.42 1.42 2.63 2.63 0 0 1 0 2.07 2.7 2.7 0 0 1-1.42 1.4 2.65 2.65 0 0 1-2.07 0 2.7 2.7 0 0 1-1.38-1.43 2.58 2.58 0 0 1-.25-1.04zm.47 0a2.13 2.13 0 0 0 .17.85 2.17 2.17 0 0 0 1.17 1.17 2.18 2.18 0 0 0 1.7 0 2.17 2.17 0 0 0 1.17-1.17 2.18 2.18 0 0 0 0-1.7 2.17 2.17 0 0 0-1.17-1.17 2.18 2.18 0 0 0-1.7 0 2.17 2.17 0 0 0-1.17 1.17 2.16 2.16 0 0 0-.16.85zm1.17-1.53h1.18a1.18 1.18 0 0 1 .81.24.87.87 0 0 1 .26.68.8.8 0 0 1-.21.6.87.87 0 0 1-.52.24l.8 1.24h-.59l-.76-1.25h-.36v1.25h-.56v-3zm.61 1.32h.67a.77.77 0 0 0 .23-.05.38.38 0 0 0 .17-.13.39.39 0 0 0 .07-.24.39.39 0 0 0-.07-.24.38.38 0 0 0-.17-.13.72.72 0 0 0-.23 0h-.67v.85z"/></svg>